<?xml version="1.0" standalone="no"?>
<!DOCTYPE svg PUBLIC "-//W3C//DTD SVG 20010904//EN"
 "http://www.w3.org/TR/2001/REC-SVG-20010904/DTD/svg10.dtd">
<svg version="1.0" xmlns="http://www.w3.org/2000/svg"
 width="3000.000000pt" height="3000.000000pt" viewBox="0 0 3000.000000 3000.000000"
 preserveAspectRatio="xMidYMid meet">

<g transform="translate(0.000000,3000.000000) scale(0.100000,-0.100000)"
fill="#000000" stroke="none">
<path d="M10605 21098 c-3 -13 -289 -1219 -634 -2681 -346 -1462 -631 -2661
-634 -2663 -3 -3 -526 -81 -1164 -173 -768 -112 -1146 -170 -1123 -174 19 -4
701 -58 1515 -122 1390 -108 1481 -114 1493 -98 7 10 221 370 475 801 416 707
463 781 469 755 4 -15 62 -458 128 -983 66 -525 123 -968 127 -984 4 -23 200
498 918 2449 817 2219 913 2474 919 2439 3 -21 139 -1245 301 -2719 162 -1474
298 -2697 302 -2717 7 -35 33 23 373 862 201 495 368 900 371 900 3 0 149
-209 324 -465 175 -256 322 -465 326 -465 4 0 44 43 89 95 l81 96 1417 -7
c779 -4 1726 -9 2104 -13 l687 -6 -1907 -289 c-1049 -159 -1916 -293 -1928
-297 -11 -4 -146 -158 -298 -343 -153 -185 -281 -336 -285 -336 -4 0 -108 149
-231 330 -123 182 -226 330 -229 330 -3 0 -290 -567 -636 -1260 -545 -1092
-631 -1257 -637 -1233 -4 15 -131 1099 -283 2408 -152 1309 -279 2392 -283
2407 -6 21 -158 -387 -772 -2067 -421 -1151 -768 -2090 -772 -2087 -3 4 -142
457 -308 1007 -166 550 -305 1004 -309 1008 -4 4 -36 -38 -70 -93 -35 -55 -67
-102 -71 -105 -4 -3 -310 22 -681 55 -370 33 -675 58 -677 56 -2 -3 -307
-1311 -678 -2908 -370 -1597 -676 -2913 -679 -2925 l-5 -23 1844 0 c1466 0
1845 3 1848 12 3 7 243 1020 534 2250 291 1231 531 2238 534 2238 3 0 155
-602 339 -1337 184 -736 337 -1341 340 -1345 4 -5 358 591 786 1322 429 732
783 1329 787 1328 4 -2 671 -1007 1481 -2233 l1474 -2230 906 -3 c856 -2 906
-1 911 15 3 10 651 2761 1441 6113 790 3352 1438 6103 1441 6113 5 16 -88 17
-1855 17 -1024 0 -1861 -1 -1861 -2 -5 -38 -1368 -5613 -1373 -5613 -4 0 -834
1262 -1845 2805 l-1839 2805 -1506 3 -1507 2 -5 -22z"/>
</g>
</svg>
